<?xml version="1.0" encoding="utf-8"?>
<!-- Generator: Adobe Illustrator 25.2.0, SVG Export Plug-In . SVG Version: 6.00 Build 0)  -->
<svg version="1.1" id="Layer_1" xmlns="http://www.w3.org/2000/svg" xmlns:xlink="http://www.w3.org/1999/xlink" x="0px" y="0px"
	 viewBox="0 0 96 120" style="enable-background:new 0 0 96 120;" xml:space="preserve">
<g>
	<path d="M12.6,80.6L45.2,48L12.6,15.4c-0.8-0.8-0.8-2,0-2.8s2-0.8,2.8,0L48,45.2l32.6-32.6c0.8-0.8,2-0.8,2.8,0
		c0.8,0.8,0.8,2,0,2.8l0,0L50.8,48l32.6,32.6c0.8,0.8,0.8,2,0,2.8s-2,0.8-2.8,0L48,50.8L15.4,83.4c-0.8,0.8-2,0.8-2.8,0
		C11.8,82.6,11.8,81.4,12.6,80.6L12.6,80.6z"/>
</g>
</svg>
