<svg xmlns="http://www.w3.org/2000/svg" width="19.951" height="20" viewBox="0 0 19.951 20">
  <path id="pinterest" d="M10.019,0A9.989,9.989,0,0,0,6.377,19.291a9.6,9.6,0,0,1,.034-2.866c.182-.781,1.172-4.964,1.172-4.964a3.615,3.615,0,0,1-.3-1.484c0-1.386.806-2.426,1.807-2.426a1.255,1.255,0,0,1,1.265,1.407,20.021,20.021,0,0,1-.827,3.327,1.449,1.449,0,0,0,1.479,1.8c1.773,0,3.14-1.871,3.14-4.572A3.943,3.943,0,0,0,9.975,5.458,4.323,4.323,0,0,0,5.467,9.791a3.89,3.89,0,0,0,.741,2.284.3.3,0,0,1,.071.288c-.075.313-.244,1-.278,1.136-.044.188-.143.226-.334.138-1.246-.575-2.027-2.4-2.027-3.872,0-3.147,2.29-6.043,6.6-6.043A5.866,5.866,0,0,1,16.4,9.49c0,3.446-2.173,6.218-5.194,6.218a2.7,2.7,0,0,1-2.3-1.149l-.624,2.373a10.883,10.883,0,0,1-1.248,2.622A9.99,9.99,0,1,0,9.992.022Z" transform="translate(-0.029)" fill="#333"/>
</svg>
