<svg xmlns="http://www.w3.org/2000/svg" width="22" height="22" viewBox="0 0 22 22">
  <path id="noun_593214_cc" d="M19.884,18.69a4.373,4.373,0,0,0,.824-.995.189.189,0,0,1,.142-.114.361.361,0,0,1,.171-.028,1.391,1.391,0,0,1,.739.313,1.265,1.265,0,0,0,.6.284c1.535,0,2.5.171,2.871.995,0-.028.028-.057.028-.085.37-.682.37-1.535.085-1.734-1.194-.853-3.752-1.535-4.832-1.08a.727.727,0,0,0-.455.54c0,.085-.085.171-.142.227-.028.028-.824.426-.739,1.165q.085.682.171,1.109A5.661,5.661,0,0,1,19.884,18.69ZM25.2,21.959a.122.122,0,0,0,.114-.114v-.767a.122.122,0,0,0-.114-.114.269.269,0,0,1-.284-.284v-.568c0-1.08-.37-1.45-2.473-1.45a1.726,1.726,0,0,1-.91-.37,1.18,1.18,0,0,0-.37-.2,5.274,5.274,0,0,1-.853.995c-.37.341-.6.568-.6,1.052v.568a.269.269,0,0,1-.284.284c-.028,0-.114.057-.114.114v.767a.122.122,0,0,0,.114.114.288.288,0,0,1,.256.171,13.2,13.2,0,0,0,.938,2.047l.028.057a1.621,1.621,0,0,0,1.649.8c1.137,0,1.45-.455,1.649-.8l.028-.057a14.554,14.554,0,0,0,.938-2.047A.309.309,0,0,1,25.2,21.959ZM22.3,11.3a11,11,0,1,0,11,11A10.99,10.99,0,0,0,22.3,11.3ZM20,26.393c-.995,0-2.672.6-2.814,1.307l-.2,1.137a.277.277,0,0,1-.284.227h-.057a.3.3,0,0,1-.227-.341l.2-1.165c.227-1.165,2.3-1.791,3.354-1.791a.269.269,0,0,1,.284.284C20.253,26.222,20.14,26.393,20,26.393Zm2.3-.767a2.151,2.151,0,0,1-2.132-1.052l-.028-.057A13.893,13.893,0,0,1,19.2,22.5a.676.676,0,0,1-.455-.625v-.767a.647.647,0,0,1,.341-.568,11.559,11.559,0,0,1-.455-2.3,1.825,1.825,0,0,1,.938-1.677,1.167,1.167,0,0,1,.767-.824c1.279-.54,4.036.171,5.4,1.137.625.455.54,1.677.085,2.473a2.568,2.568,0,0,0-.341,1.023v.142a.69.69,0,0,1,.4.6v.767a.676.676,0,0,1-.455.625,13.893,13.893,0,0,1-.938,2.018l-.057.057A2.151,2.151,0,0,1,22.3,25.626Zm5.628,3.439h-.057a.277.277,0,0,1-.284-.227L27.416,27.7c-.142-.711-1.649-1.307-2.814-1.307a.284.284,0,0,1,0-.568c1.251,0,3.127.625,3.354,1.762l.2,1.165A.25.25,0,0,1,27.928,29.065Z" transform="translate(-11.3 -11.3)" fill="#fff"/>
</svg>
