<svg xmlns="http://www.w3.org/2000/svg" width="20.031" height="20" viewBox="0 0 20.031 20">
  <path id="noun_990927_cc" d="M26.277,23.792a1.782,1.782,0,0,0-1.252-.526,1.763,1.763,0,0,0-.951.275l-1.7-1.7A7.058,7.058,0,0,0,24.2,17.084a7.145,7.145,0,0,0-2.078-5.031A7.229,7.229,0,0,0,17.09,10a7.1,7.1,0,0,0-5.031,12.115,7.117,7.117,0,0,0,9.787.25l1.7,1.7a1.782,1.782,0,0,0,.225,2.2l3.2,3.2A1.782,1.782,0,0,0,28.229,30a1.683,1.683,0,0,0,1.252-.526,1.753,1.753,0,0,0,0-2.5Zm-13.692-2.2a6.376,6.376,0,1,1,4.506,1.877A6.36,6.36,0,0,1,12.585,21.589Zm16.37,7.384a1.027,1.027,0,0,1-1.452,0l-3.2-3.2a1.027,1.027,0,0,1,0-1.452,1.115,1.115,0,0,1,.726-.3,1,1,0,0,1,.726.3l3.2,3.2A1.027,1.027,0,0,1,28.955,28.974Z" transform="translate(-9.975 -10)" fill="#fff"/>
</svg>
